<?xml version="1.0" encoding="UTF-8" standalone="no"?>
<!-- Created with Inkscape (http://www.inkscape.org/) -->

<svg
   xmlns:dc="http://purl.org/dc/elements/1.1/"
   xmlns:cc="http://creativecommons.org/ns#"
   xmlns:rdf="http://www.w3.org/1999/02/22-rdf-syntax-ns#"
   xmlns:svg="http://www.w3.org/2000/svg"
   xmlns="http://www.w3.org/2000/svg"
   xmlns:sodipodi="http://sodipodi.sourceforge.net/DTD/sodipodi-0.dtd"
   xmlns:inkscape="http://www.inkscape.org/namespaces/inkscape"
   width="210mm"
   height="297mm"
   viewBox="0 0 744.09448819 1052.3622047"
   id="svg2"
   version="1.1"
   inkscape:version="0.91 r"
   sodipodi:docname="sketchline.svg">
  <defs
     id="defs4">
    <inkscape:path-effect
       back_thickness="0.25"
       front_thickness="1"
       stroke_width_bottom="1"
       stroke_width_top="1"
       fat_output="true"
       bottom_smth_variation="0;1"
       top_smth_variation="0;1"
       scale_tb="1"
       scale_tf="1"
       scale_bb="1"
       scale_bf="1"
       top_tgt_variation="0;1"
       bottom_tgt_variation="0;1"
       top_edge_variation="33.285714;1"
       bottom_edge_variation="33.285714;1"
       bender="417.84994,-127.246 , -0.71490187,5.7415745"
       do_bend="true"
       growth="0"
       dist_rdm="75;1"
       direction="170.4936,-181.55173 , 81.141467,13.39701"
       is_visible="true"
       id="path-effect8117"
       effect="rough_hatches" />
    <inkscape:path-effect
       effect="rough_hatches"
       id="path-effect8113"
       is_visible="true"
       direction="-607.72563,-80.178578 , 1.6548332,7.2176509"
       dist_rdm="75;1"
       growth="0"
       do_bend="true"
       bender="-605.49172,-118.84043 , -62.12633,-22.76934"
       bottom_edge_variation="33.285714;1"
       top_edge_variation="33.285714;1"
       bottom_tgt_variation="0;1"
       top_tgt_variation="0;1"
       scale_bf="1"
       scale_bb="1"
       scale_tf="1"
       scale_tb="1"
       top_smth_variation="0;1"
       bottom_smth_variation="0;1"
       fat_output="true"
       stroke_width_top="1"
       stroke_width_bottom="1"
       front_thickness="1"
       back_thickness="0.25" />
    <inkscape:path-effect
       effect="rough_hatches"
       id="path-effect8108"
       is_visible="true"
       direction="-605.59134,-39.414121 , 244.07741,-7.1428572"
       dist_rdm="75;1"
       growth="0"
       do_bend="true"
       bender="-616.96208,-38.255276 , -2.788046,1.25"
       bottom_edge_variation="9.1841522;1"
       top_edge_variation="9.1841522;1"
       bottom_tgt_variation="0;1"
       top_tgt_variation="0;1"
       scale_bf="1"
       scale_bb="1"
       scale_tf="1"
       scale_tb="1"
       top_smth_variation="0;1"
       bottom_smth_variation="0;1"
       fat_output="true"
       stroke_width_top="1"
       stroke_width_bottom="1"
       front_thickness="1"
       back_thickness="0.25" />
    <inkscape:path-effect
       effect="rough_hatches"
       id="path-effect8084"
       is_visible="true"
       direction="-616.69814,9.4304645 , 65.407373,0"
       dist_rdm="75;1"
       growth="0"
       do_bend="true"
       bender="-587.40371,52.816261 , 20.15229,-10.101526"
       bottom_edge_variation="21.52;1"
       top_edge_variation="21.516249;1"
       bottom_tgt_variation="1.2;1"
       top_tgt_variation="0;1"
       scale_bf="1"
       scale_bb="1"
       scale_tf="1"
       scale_tb="1"
       top_smth_variation="0;1"
       bottom_smth_variation="0;1"
       fat_output="true"
       stroke_width_top="1"
       stroke_width_bottom="1"
       front_thickness="1"
       back_thickness="0.25" />
    <inkscape:path-effect
       effect="rough_hatches"
       id="path-effect8076"
       is_visible="true"
       direction="-442.84702,143.50723 , -26.8131,94.954339"
       dist_rdm="75;2147483646"
       growth="0"
       do_bend="true"
       bender="-443.85717,200.02501 , 27.223356,32.324884"
       bottom_edge_variation="0.84;2147483646"
       top_edge_variation="0.841574;1"
       bottom_tgt_variation="0;1"
       top_tgt_variation="0;1"
       scale_bf="2"
       scale_bb="1"
       scale_tf="1"
       scale_tb="1"
       top_smth_variation="0;1"
       bottom_smth_variation="0;1"
       fat_output="false"
       stroke_width_top="1"
       stroke_width_bottom="1"
       front_thickness="1"
       back_thickness="0.25" />
    <inkscape:path-effect
       effect="rough_hatches"
       id="path-effect8073"
       is_visible="true"
       direction="-581.00003,205.93364 , 199.46107,0"
       dist_rdm="75;1"
       growth="0"
       do_bend="true"
       bender="-581.00003,210.93364 , 5,0"
       bottom_edge_variation="0.841574;1"
       top_edge_variation="0.841574;1"
       bottom_tgt_variation="0;1"
       top_tgt_variation="0;1"
       scale_bf="2"
       scale_bb="1"
       scale_tf="1"
       scale_tb="1"
       top_smth_variation="0;1"
       bottom_smth_variation="0;1"
       fat_output="true"
       stroke_width_top="1"
       stroke_width_bottom="1"
       front_thickness="1"
       back_thickness="0.25" />
  </defs>
  <sodipodi:namedview
     id="base"
     pagecolor="#ffffff"
     bordercolor="#666666"
     borderopacity="1.0"
     inkscape:pageopacity="0.0"
     inkscape:pageshadow="2"
     inkscape:zoom="0.7"
     inkscape:cx="-661.74218"
     inkscape:cy="983.87054"
     inkscape:document-units="px"
     inkscape:current-layer="layer1"
     showgrid="false"
     inkscape:window-width="1366"
     inkscape:window-height="716"
     inkscape:window-x="0"
     inkscape:window-y="0"
     inkscape:window-maximized="1" />
  <metadata
     id="metadata7">
    <rdf:RDF>
      <cc:Work
         rdf:about="">
        <dc:format>image/svg+xml</dc:format>
        <dc:type
           rdf:resource="http://purl.org/dc/dcmitype/StillImage" />
        <dc:title />
      </cc:Work>
    </rdf:RDF>
  </metadata>
  <g
     inkscape:label="Vrstva 1"
     inkscape:groupmode="layer"
     id="layer1">
    <path
       style="color:#000000;display:inline;overflow:visible;visibility:visible;opacity:1;fill:none;fill-opacity:1;stroke:#98bf21;stroke-width:1.08853304;stroke-linecap:butt;stroke-linejoin:miter;stroke-miterlimit:4;stroke-dasharray:none;stroke-dashoffset:0;stroke-opacity:1;marker:none;enable-background:accumulate"
       d="m -155.19692,-74.485843 c 0,0 -9.56332,1.205703 -11.7085,1.202108 -4.13955,-0.0069 7.1609,-1.992097 7.87101,-3.373547 0.45494,-0.885054 -9.19654,0.387933 -19.30941,1.901532 -10.09667,1.511174 -20.70631,3.272617 -22.30793,3.271267 -2.60283,-0.0022 5.60596,-1.724597 14.54209,-3.48848 8.93066,-1.762804 18.62219,-3.572127 18.74731,-3.819779 0.2248,-0.444931 -10.40615,1.205527 -21.17194,2.989178 -10.75576,1.78199 -21.7022,3.707419 -22.32403,3.706727 -1.62474,-0.0018 10.23047,-2.305515 22.63531,-4.717627 12.39925,-2.411023 25.42224,-4.942758 25.72321,-5.535118 0.40188,-0.790984 -10.04662,0.648437 -20.92392,2.306894 -10.86106,1.655979 -22.20939,3.541831 -23.78328,3.536994 -2.59404,-0.008 12.69558,-2.991515 27.78639,-5.905901 15.12358,-2.920713 30.06298,-5.776087 26.3091,-5.787774 -4.86467,-0.01514 -26.89847,3.339329 -47.65827,6.816377 -20.66725,3.461548 -39.98889,7.029666 -39.87899,7.029896 -0.92739,-0.0019 14.93655,-3.010071 30.68905,-5.945433 15.79635,-2.943532 31.49118,-5.816776 29.81573,-5.820346 -2.76654,-0.0059 -22.96312,3.279492 -42.61628,6.671458 -19.57112,3.377806 -38.57349,6.856329 -39.38899,6.855265 -1.84499,-0.0024 13.34627,-3.028002 28.64636,-5.983757 15.3395,-2.963369 30.78746,-5.856799 29.03567,-5.859156 -2.82236,-0.0038 -20.9722,2.977763 -38.5477,6.045498 -17.50948,3.056212 -34.41895,6.192632 -35.11014,6.191854 -1.70454,-0.0019 13.40316,-3.031175 28.1841,-5.991192 14.81474,-2.966784 29.32214,-5.869577 25.98279,-5.873467 -4.40374,-0.0051 -23.85063,3.117043 -42.44221,6.335531 -18.51525,3.205274 -36.1339,6.497341 -37.23439,6.496574 -2.10275,-0.0015 12.54159,-3.03957 27.40845,-6.010705 14.90362,-2.978483 30.02432,-5.888527 28.46036,-5.889679 -2.5825,-0.0019 -13.29605,1.728392 -23.2211,3.488581 -9.9043,1.75651 -18.99775,3.537656 -18.45429,3.539175 -0.43253,-0.0012 15.11706,-2.991321 30.60495,-5.911269 15.53175,-2.928219 31.00867,-5.788013 30.04765,-5.790737 -2.00998,-0.0057 -19.22936,2.907378 -36.09948,5.899826 -16.811,2.98196 -33.25957,6.040163 -34.0716,6.037984 -1.80839,-0.0049 12.92066,-2.996765 27.75908,-5.92218 14.87487,-2.932604 29.85861,-5.798576 28.15328,-5.80322 -2.76255,-0.0075 -22.40782,3.312424 -41.22478,6.736781 -18.74509,3.411281 -36.62301,6.917455 -36.30731,6.918037 -0.68157,-0.0013 14.46742,-3.013446 29.6225,-5.957007 15.19662,-2.951633 30.40305,-5.835612 29.45312,-5.837402 -1.97373,-0.0037 -16.28272,2.452462 -29.98767,4.964639 -13.66695,2.505212 -26.70783,5.061029 -26.39164,5.061849 -0.65965,-0.0017 14.48423,-2.996074 29.66185,-5.922232 15.21937,-2.934208 30.47495,-5.800852 29.65914,-5.803001 -1.85907,-0.0049 -20.24538,3.198802 -38.13281,6.495501 -17.82305,3.284834 -35.12699,6.657633 -35.24762,6.657394 -1.11241,-0.0022 13.69005,-3.010143 27.97962,-5.9519 14.32125,-2.948278 28.15529,-5.837551 24.69271,-5.84454 -4.50512,-0.0091 -24.99673,3.405879 -44.39805,6.931702 -19.32144,3.511305 -37.49942,7.12048 -37.81562,7.12016 -1.29864,-0.0013 13.15845,-3.030867 27.24532,-5.995072 14.11797,-2.97075 27.88495,-5.881648 24.79816,-5.884897 -4.09052,-0.0043 -19.67501,2.590065 -34.37779,5.247273 -14.65567,2.648692 -28.39579,5.352073 -29.03159,5.351094 -1.58942,-0.0024 12.56581,-3.019471 26.99501,-5.972797 14.46516,-2.960687 29.19686,-5.855616 28.37755,-5.856911 -1.81082,-0.0029 -14.16702,2.189714 -26.24934,4.423874 -12.05171,2.228501 -23.82128,4.496562 -24.63886,4.494313 -1.76569,-0.0049 12.28037,-2.994031 26.26718,-5.920943 14.01759,-2.933353 27.98213,-5.806212 25.65601,-5.812701 -3.32249,-0.0093 -18.35033,2.539693 -32.51586,5.149886 -14.12381,2.602508 -27.3537,5.258439 -27.32504,5.258533 -0.92028,-0.003 13.46363,-2.980238 27.82837,-5.89391 14.40031,-2.920886 28.78583,-5.779434 27.49401,-5.783729 -2.29091,-0.0076 -18.17152,2.801647 -33.49378,5.681117 -15.27478,2.870547 -29.97061,5.806084 -30.2032,5.805304 -1.18445,-0.004 12.97591,-2.979559 27.1489,-5.892674 14.20687,-2.920079 28.42946,-5.778548 26.99228,-5.783422 -2.4565,-0.0083 -23.04402,3.708557 -43.35128,7.54348 -20.22225,3.818868 -40.15717,7.753874 -41.84038,7.75077 -2.65025,-0.0049 10.51449,-3.012994 24.21459,-5.962348 13.73028,-2.955853 27.97901,-5.847989 27.11234,-5.849621 -1.84243,-0.0035 -15.12203,2.435222 -27.80718,4.924452 -12.65339,2.482998 -24.69323,5.011489 -24.29001,5.012539 -0.53101,-0.0014 13.71148,-2.99351 27.36406,-5.923754 13.68211,-2.936585 26.80027,-5.818904 23.63655,-5.827271 -4.13733,-0.01094 -19.48818,2.609197 -33.83514,5.292868 -14.30351,2.675546 -27.56684,5.405508 -27.7722,5.404888 -1.13367,-0.0034 12.66708,-2.98623 26.51787,-5.908336 13.8833,-2.928964 27.8181,-5.797646 26.58492,-5.801416 -2.20381,-0.0067 -16.77791,2.654489 -31.09932,5.374721 -14.27876,2.712131 -28.2973,5.48135 -29.6495,5.476818 -2.28036,-0.0076 10.83449,-2.982621 23.89621,-5.900579 13.08634,-2.923459 26.12492,-5.791552 23.30164,-5.801127 -3.79689,-0.01288 -20.90921,3.020261 -37.43538,6.133334 -16.46809,3.102132 -32.3282,6.278646 -33.94161,6.273742 -2.53846,-0.0077 10.23141,-2.989359 23.29,-5.914816 13.08441,-2.931242 26.45056,-5.804146 24.72589,-5.809458 -2.67978,-0.0083 -16.8265,2.584751 -30.11432,5.235789 -13.25304,2.6441 -25.61892,5.338598 -24.99389,5.340776 -0.28785,-0.001 13.58035,-2.972993 27.21347,-5.88532 13.66511,-2.919164 27.10676,-5.78206 25.61209,-5.787329 -2.46643,-0.0087 -20.51463,3.396888 -37.69309,6.898095 -17.12167,3.489634 -33.3393,7.065344 -32.60232,7.067231 -0.18692,-4.79e-4 13.61707,-2.993111 27.21904,-5.92576 13.6344,-2.939641 27.07709,-5.822341 25.81753,-5.825616 -2.23951,-0.0058 -22.47207,3.926661 -41.99469,7.980463 -19.44867,4.038444 -38.1593,8.190168 -37.95572,8.19033 -0.72697,-5.8e-4 12.6287,-3.031322 25.72943,-6.00299 13.12915,-2.978113 26.01538,-5.900896 23.98736,-5.902596 -2.95143,-0.0025 -13.73318,1.963517 -23.90769,3.961132 -10.15242,1.993278 -19.68223,4.014135 -20.25654,4.012786 -1.46405,-0.0034 11.49166,-2.99978 24.24171,-5.939935 12.77485,-2.945874 25.35414,-5.838779 22.76734,-5.844955 -3.548,-0.0085 -22.51581,3.599997 -40.39172,7.313311 -17.8128,3.700204 -34.48896,7.49256 -33.93786,7.493192 -0.35941,-4.12e-4 12.98417,-3.023269 25.89818,-5.987643 12.94147,-2.970677 25.47101,-5.888434 23.12681,-5.891218 -3.26431,-0.0039 -15.9494,2.362892 -27.99581,4.774459 -12.01572,2.405422 -23.37435,4.850681 -24.17055,4.84907 -1.68035,-0.0034 10.90976,-3.006138 23.36728,-5.954235 12.48086,-2.95362 24.83648,-5.855001 22.3212,-5.86019 -3.42547,-0.0071 -14.45369,1.986628 -24.65381,4.014259 -10.17831,2.023295 -19.50794,4.075008 -19.66682,4.074458 -1.03591,-0.0036 11.84657,-2.975968 24.62547,-5.8932 12.80534,-2.923267 25.51338,-5.793363 23.77813,-5.799441 -2.68794,-0.0094 -22.21916,3.852442 -40.90277,7.829197 -18.61637,3.962444 -36.35207,8.03008 -36.01311,8.030701 -0.56599,-0.001 12.38412,-3.008148 24.86497,-5.959454 12.50543,-2.957117 24.55967,-5.864338 21.84797,-5.869417 -3.62689,-0.0068 -18.48157,2.837135 -32.76289,5.74379 -14.23823,2.897882 -27.88503,5.853508 -29.35968,5.85069 -2.35014,-0.0045 9.53138,-3.008609 21.73146,-5.960986 12.22286,-2.957886 24.75697,-5.861574 23.3578,-5.864304 -2.30038,-0.0045 -14.2432,2.368766 -25.96045,4.783344 -11.68859,2.408671 -23.14608,4.857136 -24.6614,4.852986 -2.3811,-0.0065 9.41265,-2.993526 21.22346,-5.929902 11.83031,-2.941227 23.67988,-5.832587 21.05009,-5.839895 -3.53238,-0.0098 -17.66166,2.716679 -31.26904,5.500364 -13.56842,2.775713 -26.59953,5.604337 -28.17534,5.599652 -2.44022,-0.0073 9.17446,-2.989454 20.87713,-5.921842 11.72194,-2.937217 23.53185,-5.824616 21.127,-5.831862 -3.31118,-0.01 -19.35038,3.195172 -34.7916,6.476992 -15.39269,3.271507 -30.16836,6.614133 -31.29975,6.611363 -1.99608,-0.0049 9.67078,-2.997896 21.69461,-5.940342 12.04681,-2.948068 24.44233,-5.84276 23.56599,-5.84494 -1.7643,-0.0044 -14.38341,2.646898 -26.66776,5.347566 -12.2547,2.694149 -24.16621,5.435147 -24.76029,5.433473 -1.44858,-0.0041 10.44788,-2.989463 22.05441,-5.924648 11.62604,-2.940116 22.97314,-5.833929 20.07947,-5.842195 -3.81255,-0.01089 -23.96913,4.144348 -43.25648,8.424154 -19.21339,4.263391 -37.52519,8.641367 -38.24178,8.640779 -1.58751,-0.0013 9.98381,-3.026769 21.67504,-6.002179 11.71289,-2.98092 23.54459,-5.911394 22.14314,-5.9126 4.4897,0.0039 -34.61352,4.954407 -25.27686,4.986117 -0.68365,-0.0023 11.43123,-2.975738 23.02416,-5.899215 11.61298,-2.928534 22.72138,-5.813274 19.68798,-5.823697 -3.91405,-0.01345 -19.04147,3.010034 -33.54525,6.101224 -14.46018,3.081899 -28.2781,6.226064 -29.86394,6.221067 -2.4304,-0.0077 8.62154,-2.986119 19.63935,-5.917899 11.034,-2.936085 22.03714,-5.826717 19.16541,-5.835881 -3.77647,-0.01205 -24.01076,4.277222 -43.38683,8.694785 -19.30207,4.400693 -37.71515,8.919866 -38.47277,8.919125 -1.61447,-0.0016 9.59031,-3.02312 21.09685,-5.996454 11.52811,-2.978906 23.3518,-5.907365 22.6534,-5.908076 -1.54426,-0.0016 -10.30894,1.92299 -18.98049,3.871129 -8.65616,1.94468 -17.2176,3.912466 -18.47131,3.909354 -2.0721,-0.0051 8.9074,-2.996612 19.71747,-5.941794 10.8258,-2.949466 21.48889,-5.855237 18.44649,-5.862909 -3.89356,-0.0098 -16.43675,2.529317 -28.35026,5.11473 -11.88368,2.578939 -23.12182,5.199454 -24.5972,5.195018 -2.29436,-0.0069 8.44492,-2.988242 19.28442,-5.924053 10.85598,-2.940276 21.81171,-5.83483 19.62062,-5.841505 -3.06909,-0.0093 -21.51042,4.070552 -39.39058,8.26012 -17.81731,4.174839 -35.05696,8.453898 -36.27277,8.452435 -2.0544,-0.0025 8.58597,-3.018157 19.09035,-5.988471 10.51938,-2.974554 20.90829,-5.905959 18.02086,-5.90955 -3.72777,-0.0046 -17.02452,2.845846 -29.67051,5.750441 -12.61292,2.896999 -24.55822,5.842789 -25.82604,5.841134 -2.076,-0.0027 8.41806,-3.016223 18.82059,-5.985081 10.41734,-2.973082 20.74744,-5.903251 18.01773,-5.906923 -3.57097,-0.0048 -18.05132,3.196587 -31.62466,6.464906 -13.53691,3.259547 -26.14147,6.577559 -26.2827,6.577433 -0.94839,-8.42e-4 9.99071,-3.023199 20.50372,-5.998988 10.52915,-2.980358 20.64473,-5.919187 17.73142,-5.921892 23.06344,0.02141 -66.87078,7.392763 -36.88825,7.466514 -1.09681,-0.0027 9.74061,-2.9946 20.31576,-5.941334 10.59175,-2.95136 20.9296,-5.860866 18.52106,-5.866886 -3.22601,-0.0081 -13.70386,2.234913 -23.37053,4.51284 -9.64806,2.27354 -18.4683,4.576604 -18.53264,4.576385 -0.85683,-0.0029 10.06449,-2.976461 20.59238,-5.9055 10.54418,-2.933571 20.70639,-5.827177 18.02115,-5.836434 -3.52004,-0.01213 -18.57138,3.346919 -32.59051,6.780926 -13.98156,3.424806 -26.9017,6.914562 -26.52334,6.915586 -0.42214,-0.0011 10.59654,-2.988324 21.23232,-5.930156 10.6534,-2.946707 20.93504,-5.852439 18.73563,-5.858478 -3.01081,-0.0083 -13.602,2.319554 -23.28128,4.684625 -9.66125,2.360668 -18.39188,4.75223 -17.85151,4.754131 -0.24698,-8.69e-4 10.83934,-2.972097 21.38312,-5.898825 10.5607,-2.931422 20.5937,-5.824208 17.93717,-5.833661 -3.48224,-0.01239 -18.00244,3.256734 -31.448,6.596511 -13.41129,3.331266 -25.71873,6.723018 -25.11857,6.724789 -0.19294,-5.69e-4 10.81378,-2.982968 21.43168,-5.920388 10.63584,-2.942383 20.89392,-5.844142 18.90637,-5.850086 -2.8017,-0.0084 -15.48546,2.91191 -27.49867,5.886163 -11.98524,2.967329 -23.28404,5.983123 -23.58224,5.982257 -1.08388,-0.0032 9.38817,-2.98656 19.82416,-5.926312 10.45297,-2.944533 20.87246,-5.846444 19.38547,-5.850825 -2.30611,-0.0068 -16.70726,3.447444 -30.84754,6.972263 -14.10117,3.515068 -27.93655,7.098972 -29.4804,7.095728 -2.33265,-0.0049 7.36471,-3.002886 17.44744,-5.959555 10.09775,-2.961074 20.57382,-5.877865 19.49782,-5.880169 -1.88123,-0.004 -13.87638,2.929548 -25.53623,5.913088 -11.63368,2.976845 -22.92521,6.001197 -23.66554,5.999666 -1.51727,-0.0031 8.52146,-3.002127 18.78684,-5.958653 10.28196,-2.961303 20.78708,-5.878696 19.90894,-5.880547 -1.68636,-0.0036 -14.96723,3.320325 -27.65273,6.707605 -12.65603,3.37941 -24.70266,6.816917 -24.27442,6.817553 -0.35153,-5.22e-4 10.21696,-3.01073 20.22361,-5.977006 10.02162,-2.970714 19.49563,-5.903552 16.65794,-5.907879 11.13633,0.01698 -49.40355,6.437962 -30.6498,6.500195 -0.59839,-0.002 9.8507,-2.977632 20.18145,-5.910302 10.34788,-2.937532 20.58171,-5.833832 19.26513,-5.838253 -2.13239,-0.0072 -18.23259,4.003263 -34.03218,8.105286 -15.75192,4.089645 -31.19798,8.268894 -32.52286,8.2666 -2.1108,-0.0037 7.40603,-3.008074 16.96823,-5.972391 9.57482,-2.968232 19.19563,-5.896641 16.99387,-5.900542 -2.99119,-0.0053 -14.94571,2.864083 -26.22683,5.782186 -11.25617,2.911648 -21.82429,5.866704 -22.28518,5.865875 -1.22313,-0.0022 8.65786,-3.005914 18.447,-5.968277 9.80356,-2.966728 19.51879,-5.893643 17.67345,-5.897037 -2.63381,-0.0048 -15.21379,3.106531 -27.3357,6.273002 -12.09309,3.15894 -23.7183,6.369364 -24.72724,6.367821 -1.76989,-0.0027 7.72938,-3.010943 17.46236,-5.979021 9.7474,-2.972477 19.72508,-5.903285 18.62428,-5.905013 -1.87416,-0.0029 -10.67396,2.190228 -18.88861,4.411265 -8.20201,2.21762 -15.8092,4.459425 -15.44318,4.460354 -0.38546,-9.79e-4 9.82654,-2.991382 20.01179,-5.939477 10.20257,-2.953112 20.38045,-5.864776 19.64968,-5.86666 -1.51359,-0.0039 -13.1561,3.007362 -24.61106,6.067751 -11.42999,3.053719 -22.66958,6.155479 -23.65113,6.15313 -1.73951,-0.0042 7.72063,-2.996959 17.4372,-5.949827 9.73101,-2.957253 19.71457,-5.872867 18.73756,-5.875244 -1.75028,-0.0043 -11.28032,2.408915 -20.32843,4.855206 -9.03278,2.442147 -17.5752,4.914195 -17.52633,4.914345 -0.70172,-0.0022 9.27607,-2.982609 19.15717,-5.922033 9.89658,-2.94403 19.69999,-5.848534 18.36992,-5.852674 -2.12899,-0.0066 -18.25194,4.186559 -33.83046,8.475697 -15.53343,4.276723 -30.50973,8.644344 -30.8857,8.643862 -1.14441,-0.0015 8.45992,-3.014216 17.83753,-5.986763 9.39047,-2.976621 18.56025,-5.915815 16.26089,-5.918856 -3.07314,-0.0041 -15.61665,3.147902 -27.54041,6.355127 -11.89581,3.199706 -23.15849,6.449582 -23.95299,6.448805 -1.5413,-0.0015 7.75264,-3.019315 17.17891,-5.997913 9.43983,-2.982881 19.01073,-5.925978 17.74235,-5.92727 14.46492,0.01473 -45.16746,6.540703 -28.71661,6.585762 -1.79089,-0.0049 7.39343,-2.991435 16.56455,-5.939805 9.18291,-2.95216 18.35426,-5.866932 16.25398,-5.872769 -2.8879,-0.008 -19.09369,4.221086 -34.77299,8.54666 -15.63219,4.312566 -30.72589,8.716846 -31.91359,8.715737 -1.9444,-0.0018 6.9756,-3.019649 15.9266,-5.999847 8.9622,-2.98392 17.95626,-5.93057 15.87774,-5.932593 -2.83274,-0.0028 -12.65214,2.477972 -21.69764,4.872309 -9.0369,2.392061 -17.2594,4.684766 -17.1033,4.203622 0.2365,-0.728757 7.684,-3.31626 14.6229,-5.713402 6.9318,-2.394704 13.3232,-4.590405 11.2211,-4.593303 -5.7537,-0.0079 -28.9415,6.952999 -28.5973,6.109594 0.5622,-1.377253 11.3945,-4.635704 8.9732,-4.637842 -3.876,-0.0034 -0.1637,-1.114711 -0.1486,-1.150893 0.2188,-0.526775 6.9884,-2.683672 6.9884,-2.683672 0,0 -7.5069,2.090538 -7.8609,2.944608 -0.5579,1.345585 0.094,1.151109 0.1493,1.151153 1.4701,0.0012 -8.2733,2.934025 -8.968,4.639727 -0.4469,1.097079 6.2064,-0.447528 13.2364,-2.251134 7.0376,-1.805552 14.4342,-3.863587 15.3501,-3.862404 1.621,0.0021 -4.7381,2.119614 -11.5337,4.475637 -6.8024,2.358362 -14.0096,4.946423 -14.2974,5.83577 -0.3638,1.123809 8.808,-1.175195 18.3738,-3.728516 9.5758,-2.556003 19.5088,-5.353754 20.41194,-5.352953 1.59391,0.0014 -7.63014,2.948811 -16.58594,5.934789 -8.9447,2.982255 -17.6174,6.001215 -15.2031,6.003259 3.0657,0.0026 19.1405,-4.404486 34.77897,-8.715535 15.68567,-4.324073 30.95345,-8.559273 31.88056,-8.556776 1.61057,0.0043 -7.79306,2.919429 -16.96955,5.873666 -9.1647,2.950444 -18.09915,5.938564 -15.83351,5.944576 -12.52827,-0.03324 46.96348,-6.572816 28.70551,-6.58983 0.77891,7.26e-4 -9.02385,2.944623 -18.45708,5.929602 -9.41971,2.9807 -18.4637,5.999661 -16.4481,6.001458 2.6923,0.0024 14.93979,-3.250372 26.84223,-6.449461 11.93048,-3.206627 23.52599,-6.363367 24.63058,-6.362001 1.80695,0.0022 -7.59615,2.942059 -16.98007,5.920789 -9.37105,2.974647 -18.724,5.988692 -17.10252,5.990631 2.28166,0.0027 18.25357,-4.367409 33.79327,-8.642482 15.58487,-4.287502 30.75639,-8.48721 30.8964,-8.486786 0.83346,0.0025 -9.20493,2.907304 -19.09474,5.853473 -9.87434,2.941557 -19.59841,5.92377 -18.41579,5.927303 1.8767,0.0056 11.41255,-2.467242 20.45193,-4.909273 9.05468,-2.446166 17.62287,-4.865346 17.3875,-4.865899 0.48018,0.0011 -9.73852,2.917239 -19.46279,5.876619 -9.70989,2.955004 -18.91632,5.949293 -16.69571,5.954416 2.90734,0.0067 15.1455,-3.096378 26.58226,-6.149506 11.46154,-3.059744 22.14228,-6.077285 21.66054,-6.078486 0.23196,5.78e-4 -10.18165,2.912691 -20.37728,5.867968 -10.17832,2.950258 -20.13534,5.942302 -19.26711,5.944431 1.56743,0.0038 10.17072,-2.239386 18.37942,-4.457077 8.22137,-2.221113 16.05539,-4.419468 15.93846,-4.419642 0.60241,8.94e-4 -9.61106,2.932396 -19.3517,5.907012 -9.72626,2.970226 -18.97101,5.97974 -16.71866,5.982991 2.9398,0.0042 15.56806,-3.208521 27.66817,-6.366815 12.12892,-3.165816 23.7447,-6.282652 24.3742,-6.281549 1.34409,0.0024 -8.60825,2.929824 -18.40504,5.898709 -9.78237,2.964514 -19.40737,5.969647 -17.69913,5.972573 2.40236,0.0041 13.97752,-2.953144 25.24076,-5.864325 11.28832,-2.917661 22.27338,-5.792382 23.25216,-5.790732 1.69825,0.0029 -8.16088,2.931833 -17.72902,5.902215 -9.55554,2.966466 -18.81539,5.972224 -16.21731,5.9765 3.27259,0.0054 19.73808,-4.175893 35.49702,-8.263986 15.80655,-4.100444 30.93476,-8.117908 31.03158,-8.117591 0.8083,0.0026 -9.66558,2.899158 -20.00644,5.838891 -10.32375,2.934866 -20.51304,5.91237 -19.42314,5.915894 -15.20276,-0.04915 46.21517,-6.482006 30.6383,-6.504411 2.32962,0.0034 -7.3845,2.93671 -17.39926,5.909627 -9.99972,2.968456 -20.30864,5.980118 -19.46581,5.981297 1.53589,0.0021 14.60414,-3.437878 27.26701,-6.816245 12.69241,-3.386247 24.99306,-6.715937 24.63902,-6.716653 0.36824,7.45e-4 -10.3776,2.918718 -20.65252,5.882225 -10.25839,2.958738 -20.03656,5.959177 -18.02638,5.963161 2.71332,0.0054 15.02965,-3.0208 26.67071,-5.997048 11.66712,-2.982911 22.6774,-5.922484 22.51163,-5.922825 0.5642,0.0012 -10.1536,2.918528 -20.24438,5.881799 -10.07583,2.95888 -19.51181,5.95826 -16.68441,5.963959 3.52325,0.0071 18.39229,-3.578526 32.50109,-7.092526 14.14779,-3.523711 27.56121,-6.984758 27.80338,-6.984065 0.97123,0.0028 -9.69164,2.904998 -20.1375,5.851764 -10.4289,2.941982 -20.63737,5.927125 -19.05517,5.931588 2.2922,0.0065 14.62785,-3.010466 26.62071,-5.977157 12.02093,-2.973637 23.70956,-5.900657 24.44036,-5.898534 1.46946,0.0043 -9.03294,2.906257 -19.66161,5.850899 -10.61068,2.93966 -21.35253,5.923901 -20.65922,5.925887 1.4,0.004 14.75035,-3.389003 28.16907,-6.719217 13.45337,-3.338815 26.97576,-6.615039 28.37542,-6.610178 2.13558,0.0074 -8.14315,2.900233 -18.69673,5.833918 -10.53662,2.928968 -21.35667,5.902208 -20.60661,5.904783 1.47358,0.0051 11.24686,-2.38719 20.91589,-4.747738 9.68729,-2.365007 19.27322,-4.699313 20.201,-4.696846 1.67777,0.0045 -8.84978,2.910473 -19.49599,5.859453 -10.62854,2.944087 -21.38056,5.933041 -20.45481,5.935466 1.63458,0.0043 15.60603,-3.486994 29.59524,-6.910643 14.02714,-3.432935 28.07451,-6.799053 29.49567,-6.794275 2.16032,0.0073 -8.24945,2.900938 -18.7865,5.836783 -10.52072,2.931295 -21.1738,5.906776 -19.81023,5.911306 2.09376,0.007 11.96539,-2.296899 21.62169,-4.570444 9.67511,-2.277973 19.13997,-4.52731 20.26562,-4.524593 1.88247,0.0045 -8.70335,2.914388 -19.2879,5.868033 -10.56793,2.949004 -21.13652,5.94257 -19.53203,5.946378 -26.31743,-0.06247 64.54469,-7.448213 36.87464,-7.471503 2.38647,0.002 -7.9774,2.941524 -18.49936,5.924179 -10.50577,2.978067 -21.17563,6.0017 -19.71895,6.002867 2.17385,0.0017 15.8404,-3.319768 29.38557,-6.578355 13.58189,-3.267423 27.04854,-6.473956 28.49956,-6.47213 2.19941,0.0028 -8.38066,2.933566 -18.79083,5.908942 -10.39537,2.971147 -20.61857,5.985946 -18.03102,5.989099 3.3157,0.004 16.32987,-2.944739 28.95173,-5.841211 12.65506,-2.904088 24.93028,-5.7598 26.5241,-5.757956 2.35337,0.0027 -8.28716,2.93477 -18.79931,5.911639 -10.49715,2.97262 -20.86471,5.989574 -18.29535,5.992444 3.27306,0.0037 21.59783,-4.278347 39.42366,-8.451217 17.88881,-4.187615 35.30527,-8.274584 36.21086,-8.271903 1.65085,0.0049 -9.55914,2.899689 -20.40774,5.842302 -10.83214,2.93815 -21.29538,5.92122 -18.48042,5.929442 3.56072,0.0104 15.88655,-2.611318 27.77984,-5.190007 11.92321,-2.585175 23.42623,-5.131 25.14834,-5.126805 2.49869,0.0061 -8.42027,2.912157 -19.2387,5.863981 -10.8027,2.94753 -21.50441,5.940634 -18.90853,5.946854 3.354,0.008 13.00374,-1.961382 21.6695,-3.90643 8.68078,-1.94842 16.39735,-3.87858 15.76836,-3.879166 0.15427,1.43e-4 -11.92471,2.929491 -23.44499,5.910793 -11.49878,2.975742 -22.42516,5.998472 -20.28715,6.000379 2.84802,0.0025 22.3683,-4.520037 41.67922,-8.918374 19.38533,-4.415282 38.57904,-8.711733 40.1495,-8.706856 2.32092,0.0072 -8.94119,2.897988 -19.9677,5.83646 -11.01034,2.934162 -21.78084,5.914418 -18.82021,5.923495 3.70788,0.01137 18.63962,-3.133833 33.10983,-6.214848 14.51391,-3.090323 28.58387,-6.121567 30.27629,-6.115896 2.47752,0.0083 -8.89168,2.893058 -20.4969,5.824036 -11.58511,2.925897 -23.41565,5.901351 -22.19748,5.905384 -5.1263,-0.01697 34.25342,-4.98255 25.26762,-4.989505 0.8475,6.56e-4 -11.2438,2.932001 -22.94874,5.915368 -11.68332,2.97786 -22.97121,6.004506 -20.8513,6.006062 2.84249,0.0021 22.2815,-4.379592 41.50429,-8.640656 19.29717,-4.277553 38.39597,-8.43978 39.96353,-8.435436 2.333,0.0065 -9.27701,2.90048 -20.89523,5.843058 -11.5987,2.937632 -23.20842,5.924826 -21.22101,5.930255 2.75142,0.0075 15.79047,-2.734884 28.05516,-5.428426 12.29415,-2.700012 23.83824,-5.358494 23.35368,-5.359658 0.31389,7.54e-4 -12.3449,2.895945 -24.38358,5.846492 -12.01579,2.944938 -23.39481,5.939543 -20.85861,5.945535 3.29222,0.0078 19.20548,-3.336732 34.60848,-6.607007 15.45163,-3.280596 30.41487,-6.493273 31.45866,-6.490217 1.83792,0.0054 -10.23765,2.89301 -21.95167,5.832707 -11.69479,2.93487 -23.01957,5.918832 -20.03485,5.92745 3.75626,0.01085 17.93183,-2.81912 31.51129,-5.594208 13.61842,-2.783051 26.66149,-5.516993 27.91176,-5.513626 2.05869,0.0055 -10.05833,2.897175 -21.88067,5.840907 -11.80284,2.938879 -23.30451,5.927599 -20.37519,5.935371 3.71226,0.0099 16.31867,-2.440174 28.01851,-4.848626 11.7282,-2.41429 22.57627,-4.794421 22.58504,-4.794405 0.82567,0.0015 -11.97651,2.905835 -24.19111,5.866256 -12.1919,2.954921 -23.7799,5.960481 -20.87975,5.965774 3.67679,0.0067 18.4822,-2.95158 32.73185,-5.848668 14.2928,-2.90586 28.05095,-5.756334 29.36843,-5.753981 2.13375,0.0038 -10.19031,2.911488 -22.68739,5.871189 -12.47243,2.953865 -25.12658,5.962608 -24.00677,5.964564 1.87216,0.0033 20.78094,-4.067115 39.40736,-8.027176 18.69401,-3.974432 37.1262,-7.844402 37.47995,-7.843194 1.1524,0.0039 -11.82751,2.874143 -24.62433,5.800008 -12.77038,2.919821 -25.35433,5.894246 -23.76019,5.89963 2.39627,0.0081 12.89339,-2.044795 23.08347,-4.068256 10.2121,-2.027835 20.12514,-4.028413 21.22138,-4.026246 1.93156,0.0038 -10.69652,2.905653 -23.169,5.861869 -12.44914,2.950682 -24.74042,5.955008 -22.50095,5.959346 3.03615,0.0059 15.56882,-2.442131 27.59652,-4.847292 12.05845,-2.41131 23.62782,-4.784087 24.55119,-4.78307 1.75793,0.0019 -11.04469,2.920364 -23.97751,5.893684 -12.9053,2.966992 -25.94846,5.991296 -25.02812,5.992273 1.68929,0.0018 19.55379,-3.794412 37.37739,-7.492519 17.88729,-3.71132 35.74156,-7.326705 36.92491,-7.323981 1.99587,0.0046 -10.85888,2.897847 -23.62517,5.846358 -12.74148,2.94278 -25.39458,5.940839 -23.36505,5.94543 2.84139,0.0064 13.55556,-2.016922 23.7205,-4.010441 10.18701,-1.99785 19.83904,-3.969663 20.42805,-3.969221 1.43602,0.0011 -11.72564,2.924673 -24.84597,5.905459 -13.0919,2.974325 -26.14417,6.00637 -24.85127,6.007289 2.05574,0.0015 21.96951,-4.154315 41.42893,-8.19011 19.53365,-4.051188 38.6443,-7.99111 38.49198,-7.991493 0.66254,0.0017 -13.05747,2.884739 -26.6828,5.827082 -13.59289,2.935339 -27.09071,5.929835 -26.33354,5.931708 1.54152,0.0038 18.96645,-3.574005 36.0992,-7.061639 17.18986,-3.49926 34.10586,-6.913353 34.17045,-6.913131 0.89451,0.0031 -12.82591,2.866065 -26.48197,5.787938 -13.62404,2.915022 -27.1845,5.889161 -26.32347,5.892088 1.66904,0.0057 15.24111,-2.689986 28.50606,-5.333254 13.29997,-2.650244 26.3052,-5.251456 26.58219,-5.250626 1.12341,0.0034 -12.52257,2.87653 -25.59819,5.810449 -13.04987,2.928142 -25.5118,5.911597 -22.39868,5.920795 3.91317,0.01156 20.99265,-3.166418 37.47374,-6.267248 16.53926,-3.111774 32.50832,-6.153525 33.87824,-6.148996 2.21625,0.0073 -11.10479,2.875478 -24.18238,5.801642 -13.05298,2.920656 -25.85696,5.897615 -22.99666,5.906958 3.67475,0.012 18.91912,-2.758235 33.21105,-5.469515 14.33426,-2.719308 27.75332,-5.389193 27.51629,-5.389897 0.62264,0.0019 -13.59531,2.870801 -27.46934,5.802523 -13.84156,2.924861 -27.3292,5.909609 -25.61324,5.91464 2.53643,0.0074 17.03091,-2.724428 31.34775,-5.399153 14.36072,-2.682924 28.55218,-5.310829 30.238,-5.306515 2.54983,0.0065 -10.85316,2.889027 -24.52619,5.828392 -13.64339,2.932993 -27.57115,5.927058 -26.45467,5.929871 1.9411,0.0049 15.21412,-2.525879 27.88043,-5.008221 12.69801,-2.488556 24.81148,-4.934569 24.19793,-4.935672 0.25215,4.53e-4 -14.28154,2.893278 -28.00253,5.851894 -13.69095,2.952139 -26.54065,5.961667 -23.30453,5.967355 4.02471,0.0071 25.21301,-3.930667 45.44828,-7.747017 20.32015,-3.832358 39.74623,-7.558182 39.7132,-7.558291 0.81575,0.0027 -13.69453,2.861313 -27.89192,5.784207 -14.16355,2.915927 -28.00512,5.89358 -26.22882,5.899382 2.60128,0.0085 18.55137,-2.92829 33.83955,-5.797575 15.33563,-2.878191 30.03933,-5.696464 29.83484,-5.697127 0.66777,0.0022 -14.00639,2.860883 -28.39709,5.784605 -14.35517,2.916503 -28.41885,5.895786 -26.90455,5.900631 2.3496,0.0075 16.83656,-2.650018 30.97431,-5.251685 14.17974,-2.609393 28.02526,-5.166641 28.84561,-5.164423 1.69974,0.0046 -12.55482,2.877708 -26.56303,5.813894 -13.97744,2.929737 -27.70232,5.920771 -25.34021,5.927064 3.20844,0.0085 16.23663,-2.261593 28.30294,-4.489862 12.0965,-2.233845 23.26341,-4.433839 22.56738,-4.434879 0.19174,2.86e-4 -14.82987,2.895964 -29.28527,5.859512 -14.41953,2.956194 -28.25269,5.974653 -26.06645,5.977833 3.02588,0.0044 18.03277,-2.702902 32.70331,-5.350799 14.71799,-2.656462 29.11455,-5.257128 30.68411,-5.255612 2.45549,0.0024 -11.60339,2.913944 -25.71189,5.887575 -14.07734,2.967062 -28.21062,5.997994 -26.31151,5.999752 2.71549,0.0025 22.1788,-3.611226 41.51453,-7.120307 19.41631,-3.523707 38.71798,-6.945832 40.67049,-6.942059 2.82432,0.0055 -11.30458,2.895076 -25.61627,5.846268 -14.27991,2.944641 -28.75497,5.954313 -27.03589,5.957566 2.54598,0.0048 21.14429,-3.37103 38.98141,-6.653807 17.90143,-3.294613 35.0849,-6.506795 34.37304,-6.508608 0.1735,4.42e-4 -15.37776,2.867491 -30.58692,5.804653 -15.16745,2.929108 -29.98138,5.925353 -28.71236,5.928536 2.12438,0.0053 16.45627,-2.553041 30.13806,-5.057431 13.71973,-2.511333 26.81617,-4.975284 26.22135,-4.976353 0.30711,5.52e-4 -15.19516,2.885149 -30.38156,5.839743 -15.14489,2.946518 -29.96366,5.960347 -28.67237,5.962617 2.12101,0.0037 21.30285,-3.505875 40.06212,-6.914849 18.83147,-3.422094 37.2688,-6.750429 37.44268,-6.74997 1.05853,0.0028 -14.22328,2.869088 -29.08816,5.804646 -14.82847,2.928369 -29.2255,5.922121 -26.8033,5.928412 3.26856,0.0085 21.02694,-3.051883 37.85323,-6.032254 16.88514,-2.990794 32.88591,-5.912879 32.29342,-5.914507 0.31043,8.53e-4 -15.46546,2.860965 -30.9868,5.792187 -15.4775,2.922944 -30.69276,5.915044 -29.64379,5.917885 1.92944,0.0052 12.32191,-1.778622 22.24246,-3.535549 9.94139,-1.760617 19.42426,-3.497505 19.41847,-3.497509 0.91502,5.95e-4 -14.50444,2.911589 -29.39794,5.893049 -14.85683,2.974118 -29.16798,6.013375 -26.44988,6.015032 3.56202,0.0022 22.50085,-3.295047 41.03237,-6.498505 18.60827,-3.216728 36.83471,-6.345514 38.61697,-6.343592 2.68359,0.0029 -12.12571,2.906316 -26.93048,5.876115 -14.77092,2.963008 -29.54203,5.993669 -27.21584,5.996084 3.17826,0.0033 21.41863,-3.137639 38.94432,-6.192133 17.59171,-3.066 34.50855,-6.054772 34.68807,-6.054546 1.091,0.0014 -14.66047,2.895543 -29.98957,5.861957 -15.28976,2.958801 -30.14159,5.985787 -27.67106,5.988797 3.31649,0.004 23.66407,-3.478679 43.25133,-6.854137 19.66935,-3.389603 38.62749,-6.683148 38.72567,-6.682947 1.00874,0.0021 -14.99171,2.87578 -30.7774,5.822403 -15.74186,2.938441 -31.26311,5.948322 -29.70536,5.951445 2.4083,0.0048 23.08889,-3.566879 43.77251,-7.02583 20.77718,-3.474598 41.5644,-6.837933 43.73496,-6.831362 3.08028,0.0093 -12.16873,2.86471 -27.28217,5.788508 -15.08064,2.917453 -30.02452,5.903005 -26.79288,5.91266 4.14417,0.01238 15.37478,-1.615076 25.52462,-3.14711 10.16614,-1.534494 19.31139,-2.984479 19.16816,-2.702062 -0.23592,0.465167 -13.58185,2.996769 -26.15341,5.441129 -12.57831,2.445673 -24.45514,4.815937 -22.18696,4.818266 3.20098,0.0033 14.03149,-1.66293 24.07338,-3.319061 10.05295,-1.657956 19.37474,-3.316454 19.40791,-3.382225 -0.0605,0.119953 -10.0764,1.929199 -19.18161,3.725051 -9.11169,1.797132 -17.34464,3.585388 -14.09515,3.587846 4.19548,0.0032 14.68425,-1.498907 24.06318,-2.884075 9.39489,-1.387526 17.73293,-2.667798 17.54091,-2.29358 -0.57741,1.125316 -13.32244,3.366364 -7.86694,3.375035 7.4062,0.01177 12.77866,-1.390602 12.77866,-1.390602 z"
       id="rect8110"
       inkscape:path-effect="#path-effect8113"
       inkscape:original-d="m -1025.9937,-87.988791 876.82135,1.887696 -6.25862,12.06649 -875.67753,-1.774863 z"
       inkscape:connector-curvature="0"
       sodipodi:nodetypes="ccccc"
       inkscape:export-filename="/home/fuzac/stranka/sketchline2.png"
       inkscape:export-xdpi="80.953796"
       inkscape:export-ydpi="80.953796" />
  </g>
</svg>
