<?xml version="1.0" encoding="utf-8"?>
<!-- Generator: Adobe Illustrator 17.0.2, SVG Export Plug-In . SVG Version: 6.00 Build 0)  -->
<!DOCTYPE svg PUBLIC "-//W3C//DTD SVG 1.1//EN" "http://www.w3.org/Graphics/SVG/1.1/DTD/svg11.dtd">
<svg version="1.1" id="Capa_1" xmlns="http://www.w3.org/2000/svg" xmlns:xlink="http://www.w3.org/1999/xlink" x="0px" y="0px"
	 width="100px" height="100px" viewBox="0 0 100 100" enable-background="new 0 0 100 100" xml:space="preserve">
<g>
	<path fill="#1D1D1B" d="M66.358,36.185c-2.292-1.229-4.616-2.289-6.916-3.151c-0.018-1.448-0.019-2.879-0.019-4.289
		c-0.003-9.328-0.006-18.14-5.504-24.093c-0.066-0.111-0.136-0.216-0.213-0.313C53.033,3.481,52.235,3.03,51.299,3
		c-0.875,0.031-1.66,0.481-2.333,1.339c-0.075,0.097-0.146,0.202-0.212,0.312c-5.498,5.953-5.501,14.765-5.504,24.093
		c0,1.438-0.001,2.898-0.02,4.375c-0.568,0.285-2.3,0.954-3.28,1.333c-0.693,0.268-1.249,0.484-1.398,0.556
		c-1.559,0.751-3.086,1.602-4.54,2.53c-7.365,4.698-10.604,11.333-9.366,19.187c0.29,1.841,1.337,1.984,1.651,1.984
		c0.07,0,0.141-0.006,0.211-0.018c0.225,0.056,0.457,0.05,0.685-0.017c2.198-0.656,4.408-1.473,6.545-2.263
		c2.977-1.101,6.048-2.236,9.108-2.94c-0.17,2.861,0.148,5.493,0.456,8.044c0.275,2.271,0.558,4.618,0.505,7.149
		c-1.739,1.314-3.617,3.244-5.436,5.111c-1.662,1.708-3.381,3.474-4.921,4.685c-0.667,0.524-0.966,1.508-0.808,2.587
		c-0.004,0.047-0.007,0.094-0.007,0.145c0,3.281,0,6.675-0.086,10.051c-0.002,0.07-0.012,0.199-0.026,0.37
		c-0.151,1.941-0.193,3.845,0.519,4.614c0.216,0.233,0.491,0.356,0.797,0.356c0.247,0,0.512-0.082,0.786-0.245
		c2.132-1.266,5.623-4.725,9-8.069c2.893-2.865,5.883-5.826,7.71-7.075c1.827,1.249,4.817,4.21,7.71,7.075
		c3.377,3.345,6.868,6.804,9,8.069c0.221,0.132,0.448,0.198,0.674,0.198c0.282,0,0.694-0.104,1.049-0.603
		c0.572-0.804,0.737-2.333,0.381-3.45c-0.102-4.519-0.113-6.809-0.113-11.292c0-0.052-0.003-0.098-0.015-0.102
		c0.166-1.122-0.133-2.105-0.8-2.629c-1.541-1.212-3.26-2.978-4.922-4.686c-1.818-1.868-3.696-3.797-5.435-5.111
		c-0.053-2.531,0.231-4.878,0.505-7.149c0.308-2.551,0.626-5.183,0.456-8.044c3.06,0.704,6.131,1.84,9.108,2.94
		c2.137,0.79,4.347,1.606,6.545,2.263c0.227,0.066,0.46,0.072,0.684,0.017c0.07,0.012,0.141,0.018,0.211,0.018
		c0.314,0,1.361-0.144,1.651-1.984c0.757-4.806-0.177-9.165-2.776-12.958C73.23,40.818,70.238,38.267,66.358,36.185z M69.786,51.144
		c-3.816-1.398-7.762-2.844-11.748-3.5c-1.001-0.171-1.675,0.708-1.773,2.167c-0.144,0.497-0.191,1.035-0.141,1.6
		c0.321,3.626,0.024,6.861-0.291,10.286c-0.247,2.69-0.503,5.472-0.436,8.477c0.02,0.896,0.27,1.642,0.707,2.113
		c0.175,0.363,0.398,0.646,0.664,0.841c1.617,1.18,3.427,3.066,5.177,4.892c1.535,1.601,3.119,3.253,4.577,4.428
		c0.004,2.98,0.02,4.341,0.065,7.059c-1.732-1.353-4.333-4.023-6.859-6.618c-2.899-2.979-5.638-5.792-7.279-6.879
		c-0.232-0.153-0.471-0.231-0.71-0.231c-0.136,0-0.271,0.026-0.401,0.077c-0.356-0.139-0.747-0.086-1.111,0.154
		c-1.642,1.087-4.38,3.9-7.279,6.879c-2.526,2.595-5.126,5.266-6.859,6.618c0.045-2.718,0.061-4.078,0.065-7.059
		c1.458-1.175,3.042-2.827,4.577-4.428c1.75-1.825,3.56-3.712,5.177-4.893c0.266-0.194,0.489-0.477,0.664-0.84
		c0.436-0.472,0.686-1.218,0.706-2.114c0.068-3.004-0.188-5.786-0.436-8.477c-0.315-3.425-0.612-6.659-0.291-10.285
		c0.05-0.565,0.003-1.103-0.14-1.6c-0.099-1.458-0.771-2.337-1.774-2.167c-3.986,0.656-7.932,2.102-11.749,3.5
		c-1.619,0.593-3.286,1.204-4.941,1.749c0.114-2.109,0.823-4.113,2.112-5.964c0.04-0.057,0.074-0.117,0.118-0.199
		c5.071-4.915,10.63-7.293,15.402-8.972c1.111-0.391,1.416-1.938,1.149-3.286c0.037-1.84,0.016-3.722-0.004-5.543
		c-0.088-7.887-0.17-15.337,4.154-19.896c0.12-0.127,0.229-0.278,0.281-0.386c0.059-0.07,0.119-0.138,0.18-0.201
		c0.059,0.059,0.108,0.113,0.127,0.125c0.104,0.184,0.214,0.335,0.334,0.462c4.324,4.558,4.241,12.008,4.153,19.895
		c-0.02,1.821-0.041,3.703-0.004,5.543c-0.268,1.349,0.038,2.896,1.149,3.286c4.772,1.678,10.331,4.056,15.402,8.971
		c0.036,0.068,0.074,0.135,0.119,0.2c1.289,1.852,1.998,3.855,2.112,5.964C73.073,52.348,71.405,51.736,69.786,51.144z"/>
</g>
</svg>
