<?xml version="1.0" encoding="utf-8"?>
<!-- Generator: Adobe Illustrator 17.0.2, SVG Export Plug-In . SVG Version: 6.00 Build 0)  -->
<!DOCTYPE svg PUBLIC "-//W3C//DTD SVG 1.1//EN" "http://www.w3.org/Graphics/SVG/1.1/DTD/svg11.dtd">
<svg version="1.1" id="Capa_1" xmlns="http://www.w3.org/2000/svg" xmlns:xlink="http://www.w3.org/1999/xlink" x="0px" y="0px"
	 width="100px" height="100px" viewBox="0 0 100 100" enable-background="new 0 0 100 100" xml:space="preserve">
<g>
	<path fill="#1D1D1B" d="M76.903,26.609c1.212-1.575,2.204-3.26,2.818-5.184c0.07-0.219,0.099-0.424,0.109-0.623
		c0.092-0.613-0.088-1.268-0.706-1.827c-2.77-2.51-5.839-4.654-9.167-6.355c-1.22-0.623-2.368-0.113-3.004,0.749
		c-1.549,1.753-2.909,3.657-3.974,5.733c-2.581-0.861-5.235-1.485-7.916-1.943v-3.697h2.32c0.107,0,0.203-0.018,0.303-0.03
		c0.092,0.013,0.185,0.03,0.277,0.03c1.352,0,2.204-1.061,2.319-2.319c0.185-2.008,0.768-5.622-0.515-7.39
		c-0.327-0.715-0.987-1.274-1.999-1.308c-9.344-0.317-18.682,0.152-28.026,0.193c-0.597,0.003-1.069,0.195-1.43,0.493
		c-2.095,1.739-2.068,10.73,1.43,10.717c0.774-0.003,1.547-0.019,2.32-0.028v2.541c-0.632,0.036-1.122,0.28-1.486,0.63
		c-3.322,0.796-6.25,2.109-8.806,3.823c-0.482-0.404-0.956-0.819-1.405-1.261c-0.9-0.887-2.382-0.898-3.28,0
		c-0.889,0.889-0.9,2.393,0,3.28c0.331,0.326,0.682,0.63,1.033,0.933c-8.552,8.26-11.469,21.908-9.826,34.37
		C10.866,77.653,24.581,93.26,44.779,94.73c18.808,1.369,37.358-11.615,44.435-28.629C95.619,50.701,88.742,35.884,76.903,26.609z
		 M69.455,17.636c1.883,1.086,3.664,2.322,5.334,3.716c-0.433,0.932-1.006,1.797-1.653,2.597c-1.864-1.181-3.811-2.239-5.824-3.146
		C67.929,19.685,68.662,18.64,69.455,17.636z M31.868,9.185c-0.089-0.641-0.147-1.284-0.168-1.932
		c8.021-0.081,16.037-0.398,24.058-0.217c0.018,0.596,0.021,1.192,0.009,1.788h-3.021c-0.07,0-0.131,0.013-0.198,0.018
		c-0.064-0.004-0.122-0.018-0.188-0.018C45.526,8.85,38.699,9.113,31.868,9.185z M50.425,13.487v3.06
		c-4.553-0.461-9.167-0.527-13.724-0.383v-2.411C41.276,13.657,45.85,13.532,50.425,13.487z M54.858,89.27
		c-19.67,4.672-36.38-8.441-41.103-27.028c-4.299-16.92,1.219-38.508,20.857-41.323c0.042-0.006,0.076-0.021,0.117-0.029
		c21.639-0.662,50.342,5.256,52.192,31.486C88.205,70.58,71.172,85.395,54.858,89.27z"/>
	<path fill="#1D1D1B" d="M54.911,59.025c-5.962-7.923-14.073-14.104-22.746-18.811c-0.146-0.08-0.291-0.132-0.434-0.171
		c-1.443-0.645-3.434,0.877-2.354,2.504c5.37,8.09,11.119,15.89,18.746,22.008c0.406,0.326,0.85,0.441,1.276,0.421
		c0.408,0.23,0.906,0.307,1.398,0.197c2.096-0.465,3.594-2.01,4.295-3.992c0.082-0.232,0.1-0.471,0.068-0.704
		C55.333,60.047,55.298,59.54,54.911,59.025z M51.365,60.671c-0.014,0.024-0.118,0.165-0.162,0.23
		c-0.084,0.094-0.17,0.185-0.261,0.273c-0.032,0.027-0.053,0.046-0.072,0.062c-0.113,0.078-0.23,0.151-0.35,0.218
		c-0.041,0.023-0.062,0.036-0.085,0.05c-0.026,0.008-0.051,0.016-0.097,0.032c-0.043,0.016-0.089,0.022-0.133,0.035
		c-4.976-4.083-9.128-8.875-12.907-13.999c5.338,3.585,10.269,7.836,14.168,12.906C51.433,60.543,51.401,60.609,51.365,60.671z"/>
	<path fill="#1D1D1B" d="M58.305,25.236c-9.65-2.906-21.437-4.495-30.524,0.847c-7.555,4.441-11.346,12.475-11.553,21.042
		c-0.11,4.579,0.189,9.972,1.438,14.397c1.104,3.915,2.662,8.091,4.716,11.616c9.299,15.958,28.882,16.496,43.335,7.43
		c14.174-8.89,22.401-27.292,11.972-42.085C73.11,31.987,65.786,27.488,58.305,25.236z M63.5,76.772
		c-12.504,8.39-28.935,7.47-37.321-5.853c-7.461-11.854-9.061-31.717,2.961-41.167c13.667-6.656,34.604-0.798,44.274,10.339
		C84.211,52.528,75.083,68.999,63.5,76.772z"/>
	<path fill="#1D1D1B" d="M71.782,53.821c-1.894-0.503-3.834-0.57-5.782-0.571c-2.58-0.001-2.58,3.999,0,4
		c1.599,0.001,3.164,0.016,4.718,0.429C73.214,58.342,74.272,54.483,71.782,53.821z"/>
	<path fill="#1D1D1B" d="M30.75,55.75h-4.5c-2.58,0-2.58,4,0,4h4.5C33.33,59.75,33.33,55.75,30.75,55.75z"/>
	<path fill="#1D1D1B" d="M47.032,38.179c1.142-0.314,1.562-1.384,1.397-2.46c-0.213-1.387-0.178-2.819-0.179-4.218
		c-0.001-2.579-4.001-2.58-4,0c0,1.775,0.052,3.524,0.321,5.282C44.737,37.861,46.074,38.442,47.032,38.179z"/>
</g>
</svg>
