<?xml version="1.0" encoding="iso-8859-1"?>
<!-- Generator: Adobe Illustrator 17.0.2, SVG Export Plug-In . SVG Version: 6.00 Build 0)  -->
<!DOCTYPE svg PUBLIC "-//W3C//DTD SVG 1.1//EN" "http://www.w3.org/Graphics/SVG/1.1/DTD/svg11.dtd">
<svg version="1.1" id="Capa_1" xmlns="http://www.w3.org/2000/svg" xmlns:xlink="http://www.w3.org/1999/xlink" x="0px" y="0px"
	 width="100px" height="100px" viewBox="0 0 100 100" style="enable-background:new 0 0 100 100;" xml:space="preserve">
<g>
	<path style="fill:#1E1E1C;" d="M79.652,36.467c-4.712-7.702-12.25-11.914-21.349-10.402c-4.689,0.779-8.662,3.36-11.729,6.823
		c-6.463-10.209-18.571-14.472-29.776-8.303C6.378,30.321,5.883,41.88,13.001,49.874c-3.996,3.988-6.87,9.731-3.517,15.02
		c3.545,5.59,10.864,4.792,16.26,2.6c9.404,8.004,21.4,7.684,29.355,0.341c10.67,7.99,24.232,7.123,29.798-6.086
		c5.21-3.407,9.926-9.195,8.577-15.815C92.105,39.215,85.869,36.54,79.652,36.467z M81.738,57.841
		c-0.657,0.402-1.006,0.958-1.129,1.545c-0.136,0.182-0.26,0.381-0.354,0.616c-4.013,10.023-14.24,9.921-21.901,4.087
		c1.194-1.701,2.23-3.618,3.057-5.758c1.162-3.013-3.674-4.304-4.822-1.329c-4.926,12.766-18.828,15.068-28.487,5.897
		c-0.658-0.625-1.409-0.782-2.1-0.653c-0.402-0.019-0.828,0.05-1.264,0.262c-3.215,1.564-8.812,3.214-11.213-0.574
		c-2.444-3.854,2.622-8.47,5.242-10.5c0.13-0.101,0.239-0.206,0.338-0.313c1.53-0.733,3.154-1.193,4.895-1.371
		c1.355-0.139,2.5-1.032,2.5-2.5c0-1.257-1.142-2.639-2.5-2.5c-2.514,0.258-4.912,0.817-7.144,1.885
		c-5.554-6.141-4.849-13.707,3.184-18.129c9.276-5.107,18.839,0.338,23.34,8.851c-1.212,2.113-2.159,4.368-2.791,6.645
		c-0.863,3.112,3.961,4.432,4.822,1.329c4.038-14.55,21.538-20.419,30.097-6.069c0.031,0.052,0.07,0.09,0.103,0.139
		c0.101,1.153,0.889,2.191,2.39,2.099c4.197-0.257,9.159,0.422,10.512,5.071C89.893,51.316,85.289,55.666,81.738,57.841z"/>
</g>
</svg>
