<?xml version="1.0" encoding="iso-8859-1"?>
<!-- Generator: Adobe Illustrator 17.0.2, SVG Export Plug-In . SVG Version: 6.00 Build 0)  -->
<!DOCTYPE svg PUBLIC "-//W3C//DTD SVG 1.1//EN" "http://www.w3.org/Graphics/SVG/1.1/DTD/svg11.dtd">
<svg version="1.1" id="Capa_1" xmlns="http://www.w3.org/2000/svg" xmlns:xlink="http://www.w3.org/1999/xlink" x="0px" y="0px"
	 width="100px" height="100px" viewBox="0 0 100 100" style="enable-background:new 0 0 100 100;" xml:space="preserve">
<g>
	<path style="fill:#1E1E1C;" d="M58.472,3.83c-0.078-0.007-0.146,0.003-0.22,0.002c-0.005,0-0.01-0.002-0.015-0.002
		c-21.994-0.762-45.112,12.02-43.114,36.752c0.008,0.1,0.033,0.189,0.051,0.282c-0.029,0.256-0.029,0.524,0.033,0.815
		c1.206,5.644-0.645,10.606-5.278,14.066c-0.212,0.159-0.375,0.34-0.517,0.529c-0.468,0.308-0.838,0.78-1.037,1.351
		c-0.869,2.494-0.209,5.033,1.784,6.768c0.329,0.286,0.709,0.48,1.105,0.585c1.287,0.711,2.632,1.183,4.029,1.513
		c-0.287,1.549-0.146,3.116,0.6,4.59c-1.393,2.715-0.468,5.71,2.282,7.345c0.155,0.092,0.31,0.162,0.462,0.216
		c0.467,0.555,0.512,1.448,0.34,2.306c-0.053,0.263-0.06,0.525-0.04,0.781c-0.012,0.233-0.005,0.469,0.04,0.707
		c0.725,3.803,3.973,5.903,7.69,5.97c0.2,0.004,0.385-0.016,0.559-0.051c0.172,0.007,0.352-0.003,0.538-0.033
		c5.969-0.967,12.765-0.427,15.007,6.129c0.448,1.31,1.646,1.754,2.719,1.581c0.362,0.271,0.838,0.426,1.438,0.384
		c10.816-0.756,21.537-2.327,32.276-3.769c0.38-0.051,0.709-0.174,0.993-0.347c1.302-0.406,2.354-1.864,1.513-3.434
		c-7.176-13.379,7.371-27.974,10.132-40.827c0.06-0.278,0.061-0.535,0.037-0.78C94.797,26.149,80.19,5.786,58.472,3.83z
		 M87.298,46.317c-0.029,0.195-0.033,0.382-0.022,0.562c-2.999,13.752-16.151,27.047-10.944,41.446
		c-9.78,1.328-19.554,2.692-29.405,3.381c-0.07,0.005-0.131,0.024-0.198,0.034c-3.521-7.836-11.714-9.242-19.82-8.015
		c-0.081-0.009-0.156-0.027-0.243-0.029c-0.923-0.017-1.405-0.113-2.125-0.553c0.063,0.02-0.37-0.325-0.366-0.32
		c-0.062-0.062-0.101-0.099-0.129-0.124c0-0.018-0.025-0.074-0.116-0.221c-0.137-0.22-0.238-0.53-0.322-0.879
		c0.418-2.887-0.402-5.395-2.821-7.24c-0.194-0.148-0.412-0.231-0.637-0.286c-0.07-0.058-0.138-0.115-0.211-0.189
		c0.013,0.006,0.001-0.023-0.041-0.091c0-0.06-0.004-0.079-0.011-0.073c0.029-0.125,0.057-0.25,0.101-0.371
		c0.001-0.005,0.352-0.55,0.468-0.714c0.325-0.458,0.391-1.014,0.289-1.548c0.097-0.528,0.028-1.078-0.289-1.537
		c-0.891-1.291-0.716-2.39,0-3.747c1.025-1.943-0.821-3.716-2.457-3.535c-0.017-0.002-0.032-0.007-0.049-0.01
		c-1.659-0.219-3.263-0.704-4.701-1.563c-0.103-0.061-0.204-0.099-0.305-0.144c-0.072-0.104-0.139-0.211-0.199-0.322
		c-0.01-0.03-0.018-0.056-0.032-0.099c-0.012-0.055-0.02-0.091-0.028-0.126c-0.004-0.108-0.001-0.215,0.004-0.323
		c0.008-0.029,0.023-0.097,0.043-0.202c5.984-4.675,8.554-11.102,7.098-18.614c0.003-0.094,0.013-0.182,0.005-0.282
		C18.039,18.352,38.721,7.866,58.236,8.542c0.062,0.002,0.116-0.009,0.176-0.011c0.021,0.002,0.039,0.009,0.06,0.011
		C77,10.211,89.937,28.28,87.298,46.317z"/>
	<path style="fill:#1E1E1C;" d="M66.893,31.629c-4.869-5.904-14.257-6.93-20.854-2.954c-6.243,3.763-7.55,11.319-4.969,17.751
		c0.616,1.536,1.607,2.876,2.366,4.338c0.453,0.873,1.655,3.309,1.063,4.284c-0.201,0.33-0.32,0.737-0.314,1.225
		c0.024,2.085,0.375,4.148,0.672,6.207c0.004,0.033,0.02,0.061,0.027,0.093c0.161,1.018,0.907,1.927,2.239,1.927
		c4.802,0,9.6,0.015,14.395,0.294c1.039,0.06,1.71-0.457,2.035-1.164c0.192-0.325,0.316-0.714,0.316-1.186v-5.288
		c0-0.693-0.257-1.213-0.637-1.588c-0.565-0.558,2.347-4.431,2.729-4.951c1.167-1.587,2.323-3.118,3.081-4.95
		c1.615-3.905,1.348-8.347-0.757-12.025C67.886,32.943,67.422,32.27,66.893,31.629z M59.168,59.985
		c-3.324-0.138-6.651-0.167-9.979-0.176c-0.07-0.513-0.129-1.027-0.18-1.541c3.397-0.065,6.778,0.098,10.159,0.438V59.985z
		 M63.774,45.7c-0.183,0.235-0.303,0.481-0.39,0.73c-0.1,0.077-0.2,0.151-0.295,0.25c-2.018,2.079-3.466,4.546-4.288,7.284
		c-0.811-0.077-1.621-0.144-2.432-0.2c0.001-0.135,0.015-0.269-0.006-0.407c-0.296-1.99-0.108-3.979,0.392-5.918
		c0.028-0.108,0.039-0.21,0.048-0.311l2.436-2.436c0.679-0.679,0.679-1.814,0-2.493c-0.679-0.679-1.814-0.679-2.493,0l-1.196,1.196
		c-0.364-0.613-0.759-1.208-1.207-1.784c-0.591-0.76-1.877-0.616-2.493,0c-0.742,0.742-0.589,1.735,0,2.493
		c0.597,0.767,1.041,1.672,1.474,2.55c-0.576,2.31-0.701,4.601-0.43,6.946c-1.233-0.036-2.467-0.053-3.704-0.031
		c-0.162-1.855-0.779-3.64-1.8-5.239c-0.116-0.181-0.247-0.331-0.385-0.465c-0.054-0.138-0.117-0.277-0.203-0.417
		c-3.317-5.377-3.608-11.57,2.293-15.127c4.934-2.974,10.803-1.269,14.67,2.465C66.395,38.312,66.551,42.132,63.774,45.7z"/>
	<path style="fill:#1E1E1C;" d="M35.483,37.105c-2.037-0.014-4.063-0.185-6.091-0.369c-2.135-0.194-2.116,3.131,0,3.323
		c2.028,0.184,4.054,0.355,6.091,0.369C37.626,40.442,37.625,37.119,35.483,37.105z"/>
	<path style="fill:#1E1E1C;" d="M45.039,23.53c-1.179-1.768-2.377-3.523-3.767-5.135c-1.401-1.626-3.74,0.735-2.349,2.349
		c1.204,1.398,2.225,2.93,3.247,4.463C43.353,26.98,46.232,25.318,45.039,23.53z"/>
	<path style="fill:#1E1E1C;" d="M66.082,24.284c0.878-1.405,1.758-2.809,2.584-4.245c1.07-1.861-1.801-3.533-2.869-1.677
		c-0.826,1.436-1.706,2.841-2.584,4.245C62.074,24.43,64.95,26.096,66.082,24.284z"/>
	<path style="fill:#1E1E1C;" d="M74.319,38.338c2.117-0.594,4.149-1.411,6.119-2.383c1.921-0.948,0.237-3.813-1.677-2.869
		c-1.718,0.847-3.48,1.53-5.325,2.048C71.375,35.711,72.252,38.917,74.319,38.338z"/>
</g>
</svg>
