<?xml version="1.0" encoding="iso-8859-1"?>
<!-- Generator: Adobe Illustrator 17.0.2, SVG Export Plug-In . SVG Version: 6.00 Build 0)  -->
<!DOCTYPE svg PUBLIC "-//W3C//DTD SVG 1.1//EN" "http://www.w3.org/Graphics/SVG/1.1/DTD/svg11.dtd">
<svg version="1.1" id="Capa_1" xmlns="http://www.w3.org/2000/svg" xmlns:xlink="http://www.w3.org/1999/xlink" x="0px" y="0px"
	 width="100px" height="100px" viewBox="0 0 100 100" style="enable-background:new 0 0 100 100;" xml:space="preserve">
<g>
	<path style="fill:#1D1D1B;" d="M92.275,38.604c-0.214-0.074-0.447-0.124-0.713-0.125c-4.611-0.005-9.227-0.041-13.844-0.078
		c-1.231-7.941-1.16-15.983-1.594-23.994c-0.069-1.261-1.028-1.925-2.012-2.003c-0.186-0.052-0.382-0.09-0.604-0.09
		c-14.445-0.023-28.86-0.355-43.207,1.645c-1.281,0.178-1.676,1.203-1.455,2.178c-0.033,0.117-0.066,0.235-0.082,0.364
		c-0.937,7.608-1.08,15.266-1.506,22.911c-6.59,0.51-13.167,1.235-19.721,2.282c-1.343,0.215-1.717,1.349-1.42,2.366
		C6.047,44.27,5.999,44.498,6,44.759c0.057,12.655,1.148,16.855,3.215,29.339c0.083,0.502,0.294,0.867,0.579,1.115
		c0.177,0.874,0.829,1.663,1.963,1.731c27.116,1.619,54.454,2.315,81.409-1.645c1.212-0.178,1.63-1.11,1.485-2.037
		c0.018-0.081,0.042-0.157,0.052-0.243c1.507-13.583,1.27-18.835,0.262-32.446C94.85,39.041,93.432,38.384,92.275,38.604z
		 M32.803,17.829c13.013-1.669,26.14-1.378,39.235-1.336c0.337,7.314,0.441,14.623,1.471,21.876
		c-14.03-0.106-28.068-0.138-42.049,0.748C31.85,32.015,32.015,24.902,32.803,17.829z M65.642,73.702
		c0.004-0.054,0.017-0.106,0.017-0.16v-1.047c0-1.135-0.942-2.081-2.075-2.091c-0.312-0.158-0.676-0.233-1.078-0.21
		c-0.16-0.032-0.322-0.062-0.51-0.053c-0.74,0.034-1.48,0.07-2.22,0.104c-0.2-0.062-0.414-0.105-0.658-0.104
		c-5.936,0.019-11.864,0.265-17.793,0.523c-0.095,0.004-0.179,0.024-0.267,0.038c-0.086-0.012-0.167-0.038-0.256-0.038
		c-1.141,0-2.093,0.952-2.093,2.093v1.153c-1.847-0.036-3.695-0.07-5.541-0.132c-0.008-0.089-0.009-0.176-0.028-0.27
		c-0.345-1.683-0.423-3.397-0.441-5.111c12.447-1.446,24.939-1.101,37.419-0.215c0.02,1.767,0.091,3.522,0.299,5.272
		C68.825,73.552,67.233,73.629,65.642,73.702z M90.666,71.449c-5.345,0.752-10.709,1.307-16.085,1.716
		c-0.269-2.042-0.287-4.104-0.288-6.166c0-0.539-0.171-0.965-0.438-1.289c-0.224-0.807-0.86-1.51-1.916-1.59
		c-13.613-1.02-27.244-1.486-40.819,0.262c-0.127,0.016-0.242,0.049-0.356,0.082c-1.1-0.076-2.261,0.589-2.26,2.011
		c0.001,2.397,0.057,4.783,0.437,7.147c-5.245-0.21-10.484-0.476-15.711-0.782c-1.949-11.824-2.941-15.358-3.032-27.338
		c26.695-4.058,53.811-2.887,80.719-2.84C91.76,55.054,91.917,59.082,90.666,71.449z"/>
	<path style="fill:#1D1D1B;" d="M61.21,24.611c2.643-0.328,2.675-4.519,0-4.187c-6.965,0.865-13.934,0.6-20.933,0.785
		c-2.694,0.071-2.702,4.258,0,4.187C47.276,25.211,54.245,25.476,61.21,24.611z"/>
	<path style="fill:#1D1D1B;" d="M61.733,29.583c-7.047-0.507-13.827-0.773-20.704,1.121c-2.6,0.716-1.494,4.755,1.113,4.037
		c6.519-1.795,12.924-1.451,19.591-0.972C64.428,33.963,64.41,29.775,61.733,29.583z"/>
	<path style="fill:#1D1D1B;" d="M82.927,47.114h-5.233c-2.7,0-2.7,4.187,0,4.187h5.233C85.627,51.3,85.627,47.114,82.927,47.114z"/>
	<path style="fill:#1D1D1B;" d="M71.676,47.375c-2.7,0-2.7,4.187,0,4.187C74.376,51.562,74.376,47.375,71.676,47.375z"/>
</g>
</svg>
