<?xml version="1.0" encoding="iso-8859-1"?>
<!-- Generator: Adobe Illustrator 17.0.2, SVG Export Plug-In . SVG Version: 6.00 Build 0)  -->
<!DOCTYPE svg PUBLIC "-//W3C//DTD SVG 1.1//EN" "http://www.w3.org/Graphics/SVG/1.1/DTD/svg11.dtd">
<svg version="1.1" id="Capa_1" xmlns="http://www.w3.org/2000/svg" xmlns:xlink="http://www.w3.org/1999/xlink" x="0px" y="0px"
	 width="100px" height="100px" viewBox="0 0 100 100" style="enable-background:new 0 0 100 100;" xml:space="preserve">
<g>
	<path style="fill:#1D1D1B;" d="M75.52,29.187c1.578-2.23,3.245-4.386,4.954-6.508c1.853,1.63,3.732,3.23,5.678,4.757
		c2.935,2.305,7.112-1.811,4.143-4.142c-2.082-1.635-4.091-3.349-6.067-5.099c1.504-1.728,3.032-3.438,4.603-5.112
		c2.582-2.751-1.553-6.903-4.143-4.142c-1.63,1.737-3.213,3.514-4.771,5.311c-1.438-1.362-2.863-2.739-4.268-4.139
		c-2.678-2.669-6.821,1.473-4.143,4.142c1.528,1.523,3.081,3.017,4.648,4.494c-1.967,2.437-3.879,4.919-5.692,7.482
		C68.273,29.322,73.356,32.244,75.52,29.187z"/>
	<path style="fill:#1D1D1B;" d="M29.615,61.961c-2.074,1.848-4.074,3.773-6.051,5.721c-1.209-1.206-2.407-2.423-3.575-3.671
		c-2.586-2.764-6.721,1.387-4.143,4.142c1.167,1.247,2.364,2.464,3.572,3.669c-1.384,1.402-2.767,2.805-4.158,4.199
		c-2.669,2.678,1.473,6.82,4.143,4.142c1.412-1.416,2.816-2.84,4.221-4.262c1.404,1.33,2.815,2.653,4.233,3.969
		c2.764,2.567,6.917-1.567,4.143-4.142c-1.417-1.316-2.827-2.638-4.229-3.967c1.957-1.926,3.935-3.83,5.987-5.659
		C36.583,63.585,32.425,59.456,29.615,61.961z"/>
	<path style="fill:#1D1D1B;" d="M94.953,72.397c-0.135-0.278-0.483-0.966-0.761-1.55c-1.15-2.419-2.788-4.53-5.26-5.829
		c-3.463-1.819-7.324-0.99-10.683,0.586c-0.295,0.138-0.543,0.303-0.747,0.486c-0.367,0.331-0.891,1.096-1.293,1.603
		c-3.138,3.962-4.323,8.719-3.114,13.815c0.054,0.227,0.126,0.433,0.214,0.619c0.155,0.328,0.556,1.039,0.865,1.608
		c1.925,3.538,5.146,5.635,9.362,6.075c0.127,0.013,0.252,0.012,0.375,0c0.206-0.02,0.637-0.013,0.973-0.024
		c0.193-0.007,0.394-0.032,0.602-0.08c3.609-0.827,6.731-2.506,8.828-5.621c2.181-3.242,1.804-7.601,0.835-11.164
		C95.097,72.73,95.03,72.557,94.953,72.397z M89.52,80.665c-0.837,1.732-2.598,2.565-4.375,3.079
		c-0.622,0.18-1.24,0.266-1.371,0.242c-0.079-0.014-0.158-0.027-0.239-0.035c-2.031-0.212-3.76-1.508-4.499-3.415
		c-0.041-0.104-0.086-0.206-0.135-0.305c-0.082-0.165-0.288-0.803-0.368-1.445c-0.34-2.727,0.458-5.186,2.154-7.341
		c0.4-0.508,1.243-1.109,1.866-1.283c3.379-0.944,5.716,1.016,6.945,4.608c0.023,0.068,0.051,0.131,0.08,0.192
		c0.05,0.104,0.225,0.695,0.336,1.333C90.172,77.772,90.186,79.287,89.52,80.665z"/>
	<path style="fill:#1D1D1B;" d="M67.131,39.426c-0.163,3.086-0.335,6.171-0.505,9.255C51.01,33.224,24.219,26.605,7.938,44.678
		c-2.521,2.798,1.609,6.955,4.143,4.142c13.877-15.402,35.905-9.476,49.498,3.155c-2.771-0.438-5.543-0.875-8.315-1.313
		c-3.695-0.584-5.281,5.062-1.558,5.649l16.697,2.636c2.174,0.343,3.607-1.469,3.668-3.14c0.013-0.091,0.035-0.175,0.04-0.271
		c0.298-5.37,0.595-10.74,0.879-16.111C73.189,35.648,67.33,35.668,67.131,39.426z"/>
	<path style="fill:#1D1D1B;" d="M8.065,25.351c-2.072,3.174,3.002,6.106,5.059,2.957c1.102-1.687,2.238-3.35,3.382-5.008
		c1.124,1.013,2.271,2.002,3.442,2.964c2.894,2.378,7.064-1.742,4.143-4.142c-1.447-1.189-2.845-2.431-4.22-3.696
		c1.086-1.578,2.166-3.161,3.213-4.765c2.072-3.174-3.002-6.106-5.059-2.957c-0.787,1.205-1.59,2.398-2.401,3.586
		c-1.511-1.551-2.994-3.13-4.422-4.764c-2.49-2.85-6.617,1.311-4.143,4.142c1.665,1.905,3.397,3.744,5.176,5.534
		C10.824,21.238,9.419,23.277,8.065,25.351z"/>
</g>
</svg>
