<?xml version="1.0" encoding="UTF-8" standalone="no"?>
<!-- Created with Inkscape (http://www.inkscape.org/) -->

<svg
   width="29.020607mm"
   height="29.757061mm"
   viewBox="0 0 29.020607 29.757061"
   version="1.1"
   id="svg5"
   inkscape:version="1.2.2 (b0a8486541, 2022-12-01)"
   sodipodi:docname="ikony.svg"
   xml:space="preserve"
   xmlns:inkscape="http://www.inkscape.org/namespaces/inkscape"
   xmlns:sodipodi="http://sodipodi.sourceforge.net/DTD/sodipodi-0.dtd"
   xmlns="http://www.w3.org/2000/svg"
   xmlns:svg="http://www.w3.org/2000/svg"><sodipodi:namedview
     id="namedview7"
     pagecolor="#ffffff"
     bordercolor="#666666"
     borderopacity="1.0"
     inkscape:showpageshadow="2"
     inkscape:pageopacity="0.0"
     inkscape:pagecheckerboard="0"
     inkscape:deskcolor="#d1d1d1"
     inkscape:document-units="mm"
     showgrid="false"
     inkscape:zoom="0.61434092"
     inkscape:cx="264.51111"
     inkscape:cy="294.62469"
     inkscape:window-width="1920"
     inkscape:window-height="1011"
     inkscape:window-x="0"
     inkscape:window-y="0"
     inkscape:window-maximized="1"
     inkscape:current-layer="layer1"
     showguides="true"><sodipodi:guide
       position="-35.357771,28.659103"
       orientation="0,-1"
       id="guide3270"
       inkscape:locked="false" /><sodipodi:guide
       position="20.580578,0.47432245"
       orientation="0,-1"
       id="guide3272"
       inkscape:locked="false" /><sodipodi:guide
       position="-18.137506,0.78721246"
       orientation="0,-1"
       id="guide398"
       inkscape:locked="false" /><sodipodi:guide
       position="-23.393886,4.6501726"
       orientation="0,-1"
       id="guide433"
       inkscape:locked="false" /></sodipodi:namedview><defs
     id="defs2" /><g
     inkscape:label="Layer 1"
     inkscape:groupmode="layer"
     id="layer1"
     transform="translate(-105.07473,-62.790682)"><path
       style="fill:none;fill-opacity:1;stroke:#fadb88;stroke-width:1.41702;stroke-dasharray:none;stroke-opacity:1"
       d="m 106.57709,91.276501 c -0.76864,-0.0058 -0.42762,-10.889436 -0.49459,-17.477922 -0.0669,-6.588486 -0.70501,-9.551808 0.12153,-9.89479 1.35213,-0.561078 25.61769,-0.654055 26.63529,0.474405 0.50881,0.564229 0.23311,4.313072 0.28907,10.915701 0.056,6.604968 0.50375,15.913433 0.0734,16.121265 -2.54989,1.231223 -9.40302,-0.864051 -13.83504,-0.324007 -6.08994,0.54492 -6.6909,0.230879 -12.78934,0.185347 z"
       id="path2918-6"
       sodipodi:nodetypes="csssssccc"
       inkscape:export-filename="rss.svg"
       inkscape:export-xdpi="267.157"
       inkscape:export-ydpi="267.157" /><path
       style="color:#000000;fill:#fadb88;fill-opacity:1;-inkscape-stroke:none"
       d="m 111.07855,75.365282 c -0.43318,-0.03925 -0.4131,1.287122 0.0215,1.304687 0.81309,0.03286 4.89691,1.011478 6.64062,2.925782 1.74372,1.914303 1.65559,4.73131 2.53711,7.191406 0.14643,0.408651 1.24157,0.0805 1.13066,-0.339183 -0.75691,-2.864225 -0.74992,-5.520163 -2.70292,-7.729177 -1.40404,-1.588093 -2.39178,-1.828857 -3.19973,-2.151948 -0.80796,-0.323091 -2.76503,-1.050938 -4.42724,-1.201567 z"
       id="path3187"
       sodipodi:nodetypes="sssssszs" /><path
       style="color:#000000;fill:#fadb88;fill-opacity:1;-inkscape-stroke:none"
       d="m 110.19769,69.269579 c -0.42564,0.0898 -0.3076,1.318548 0.12696,1.298828 4.28453,-0.194433 9.08285,1.206206 12.30859,4.496094 3.22574,3.289887 3.93392,9.205611 4.32227,12.472656 0.0513,0.431715 1.32326,0.572626 1.29687,0.138672 -0.19589,-3.22129 -0.84203,-5.018525 -1.38617,-7.464352 -0.55928,-2.513928 -1.55158,-4.27454 -3.30133,-6.059086 -3.4995,-3.569092 -10.87072,-5.409494 -13.36719,-4.882812 z"
       id="path3187-7"
       sodipodi:nodetypes="ssssssss" /><path
       style="color:#000000;fill:#fadb88;fill-opacity:1;-inkscape-stroke:none"
       d="m 113.00824,82.337938 c -1.15637,-0.200536 -2.07709,0.995815 -2.11133,2.173828 -0.021,0.721029 0.9377,2.173828 2.11133,2.173828 1.17363,0 2.11328,-0.995317 2.11328,-2.173828 0,-1.178511 -0.93965,-1.970298 -2.11328,-2.173828 z m 0,1.304688 c 0.43923,0 0.80859,0.366891 0.80859,0.86914 0,0.502249 -0.36936,0.869141 -0.80859,0.869141 -0.43923,0 -0.67534,-0.384891 -0.80859,-0.869141 -0.1382,-0.502249 0.36936,-0.86914 0.80859,-0.86914 z"
       id="path3220"
       sodipodi:nodetypes="ssssssssss" /></g></svg>
